<svg width="1200" height="630" viewBox="0 0 1200 630" xmlns="http://www.w3.org/2000/svg"><defs><pattern id="satori_pattern_id_0" x="0" y="0" width="1" height="1" patternUnits="objectBoundingBox"><linearGradient id="satori_biid_0" x1="0" y1="0" x2="0" y2="1" spreadMethod="pad"><stop offset="0%" stop-color=""/><stop offset="100%" stop-color="#222222"/></linearGradient><rect x="0" y="0" width="1200" height="630" fill="url(#satori_biid_0)"/></pattern></defs><mask id="satori_om-id"><rect x="0" y="0" width="1200" height="630" fill="#fff"/></mask><rect x="0" y="0" width="1200" height="630" fill="url(#satori_pattern_id_0)"/><clipPath id="satori_bct-id-0"><path d="M406.3 307.8L406.3 307.8L397.0 307.8Q396.7 306.0 395.9 304.5Q395.1 303.1 393.9 302.1Q392.7 301.1 391.0 300.6Q389.4 300.1 387.6 300.1L387.6 300.1Q384.2 300.1 381.7 301.7Q379.1 303.4 377.8 306.6Q376.4 309.8 376.4 314.3L376.4 314.3Q376.4 319.0 377.8 322.1Q379.2 325.3 381.7 326.9Q384.2 328.6 387.5 328.6L387.5 328.6Q389.4 328.6 390.9 328.1Q392.5 327.6 393.8 326.6Q395.0 325.7 395.8 324.3Q396.6 323.0 397.0 321.2L397.0 321.2L406.3 321.3Q405.9 324.3 404.5 327.0Q403.1 329.8 400.6 332.0Q398.2 334.2 394.9 335.5Q391.5 336.7 387.4 336.7L387.4 336.7Q381.5 336.7 376.9 334.1Q372.3 331.4 369.7 326.4Q367.0 321.4 367.0 314.3L367.0 314.3Q367.0 307.2 369.7 302.2Q372.4 297.2 377.0 294.5Q381.6 291.9 387.4 291.9L387.4 291.9Q391.1 291.9 394.4 293.0Q397.6 294.0 400.2 296.1Q402.7 298.1 404.3 301.0Q405.8 304.0 406.3 307.8ZM419.8 317.2L419.8 317.2L419.8 336.1L410.8 336.1L410.8 292.5L419.6 292.5L419.6 309.2L420.0 309.2Q421.1 306.3 423.5 304.6Q426.0 303.0 429.7 303.0L429.7 303.0Q433.1 303.0 435.7 304.5Q438.2 305.9 439.7 308.7Q441.1 311.5 441.0 315.3L441.0 315.3L441.0 336.1L432.0 336.1L432.0 316.9Q432.0 313.9 430.4 312.2Q428.9 310.5 426.1 310.5L426.1 310.5Q424.3 310.5 422.9 311.3Q421.4 312.1 420.6 313.6Q419.8 315.1 419.8 317.2ZM455.3 336.1L446.2 336.1L446.2 303.4L455.0 303.4L455.0 309.1L455.3 309.1Q456.2 306.1 458.4 304.5Q460.5 302.9 463.2 302.9L463.2 302.9Q463.9 302.9 464.7 303.0Q465.5 303.1 466.1 303.2L466.1 303.2L466.1 311.3Q465.4 311.1 464.3 311.0Q463.2 310.8 462.2 310.8L462.2 310.8Q460.2 310.8 458.7 311.7Q457.1 312.5 456.2 314.1Q455.3 315.6 455.3 317.6L455.3 317.6L455.3 336.1ZM477.8 336.1L468.7 336.1L468.7 303.4L477.8 303.4L477.8 336.1ZM473.3 299.2L473.3 299.2Q471.3 299.2 469.8 297.8Q468.4 296.5 468.4 294.6L468.4 294.6Q468.4 292.7 469.8 291.3Q471.3 290.0 473.3 290.0L473.3 290.0Q475.3 290.0 476.8 291.3Q478.2 292.7 478.2 294.6L478.2 294.6Q478.2 296.5 476.8 297.8Q475.3 299.2 473.3 299.2ZM510.3 312.7L510.3 312.7L502.0 313.2Q501.8 312.2 501.1 311.3Q500.4 310.5 499.2 309.9Q498.1 309.4 496.5 309.4L496.5 309.4Q494.4 309.4 492.9 310.3Q491.5 311.2 491.5 312.6L491.5 312.6Q491.5 313.8 492.4 314.6Q493.4 315.4 495.6 315.9L495.6 315.9L501.6 317.1Q506.3 318.1 508.7 320.3Q511.0 322.4 511.0 326.0L511.0 326.0Q511.0 329.2 509.1 331.6Q507.3 334.1 504.0 335.4Q500.7 336.8 496.5 336.8L496.5 336.8Q490.0 336.8 486.1 334.0Q482.3 331.3 481.6 326.6L481.6 326.6L490.5 326.2Q490.9 328.2 492.5 329.2Q494.0 330.2 496.5 330.2L496.5 330.2Q498.9 330.2 500.3 329.3Q501.8 328.4 501.8 326.9L501.8 326.9Q501.8 325.7 500.8 324.9Q499.7 324.1 497.6 323.6L497.6 323.6L491.9 322.5Q487.1 321.6 484.8 319.2Q482.5 316.8 482.5 313.2L482.5 313.2Q482.5 310.0 484.2 307.7Q485.9 305.4 489.0 304.2Q492.2 303.0 496.3 303.0L496.3 303.0Q502.5 303.0 506.1 305.6Q509.7 308.2 510.3 312.7ZM512.5 303.4L532.2 303.4L532.2 310.2L512.5 310.2L512.5 303.4ZM516.9 327.3L516.9 295.6L526.0 295.6L526.0 326.1Q526.0 327.3 526.4 328.0Q526.8 328.7 527.5 329.0Q528.2 329.3 529.1 329.3L529.1 329.3Q529.7 329.3 530.4 329.1Q531.0 329.0 531.3 329.0L531.3 329.0L532.8 335.7Q532.1 335.9 530.8 336.2Q529.6 336.5 527.8 336.6L527.8 336.6Q524.6 336.7 522.1 335.7Q519.6 334.7 518.3 332.6Q516.9 330.5 516.9 327.3L516.9 327.3ZM550.6 336.8L550.6 336.8Q545.6 336.8 542.0 334.7Q538.3 332.7 536.4 328.9Q534.4 325.1 534.4 319.9L534.4 319.9Q534.4 314.9 536.4 311.0Q538.3 307.2 541.9 305.1Q545.5 303.0 550.3 303.0L550.3 303.0Q553.5 303.0 556.3 304.0Q559.1 305.0 561.2 307.1Q563.3 309.2 564.5 312.3Q565.7 315.4 565.7 319.6L565.7 319.6L565.7 322.1L538.0 322.1L538.0 316.5L557.1 316.5Q557.1 314.5 556.3 313.0Q555.4 311.5 553.9 310.6Q552.4 309.7 550.4 309.7L550.4 309.7Q548.4 309.7 546.8 310.7Q545.2 311.6 544.3 313.2Q543.4 314.8 543.4 316.8L543.4 316.8L543.4 322.1Q543.4 324.5 544.3 326.3Q545.2 328.1 546.9 329.0Q548.5 330.0 550.8 330.0L550.8 330.0Q552.3 330.0 553.6 329.6Q554.8 329.1 555.7 328.3Q556.6 327.4 557.1 326.2L557.1 326.2L565.5 326.8Q564.8 329.8 562.9 332.0Q560.9 334.3 557.8 335.5Q554.7 336.8 550.6 336.8ZM569.6 292.5L578.7 292.5L578.7 336.1L569.6 336.1L569.6 292.5ZM593.0 336.1L583.9 336.1L583.9 303.4L593.0 303.4L593.0 336.1ZM588.5 299.2L588.5 299.2Q586.4 299.2 585.0 297.8Q583.6 296.5 583.6 294.6L583.6 294.6Q583.6 292.7 585.0 291.3Q586.4 290.0 588.5 290.0L588.5 290.0Q590.5 290.0 591.9 291.3Q593.4 292.7 593.4 294.6L593.4 294.6Q593.4 296.5 591.9 297.8Q590.5 299.2 588.5 299.2ZM598.2 337.6L598.2 303.4L607.3 303.4L607.3 337.7Q607.3 341.5 605.8 343.9Q604.3 346.2 601.5 347.3Q598.8 348.4 594.9 348.4L594.9 348.4Q594.4 348.4 594.0 348.4Q593.6 348.4 593.1 348.4L593.1 348.4L593.1 341.3Q593.4 341.3 593.7 341.3Q594.0 341.3 594.3 341.3L594.3 341.3Q596.5 341.3 597.3 340.4Q598.2 339.4 598.2 337.6L598.2 337.6ZM602.7 299.2L602.7 299.2Q600.7 299.2 599.3 297.8Q597.8 296.5 597.8 294.6L597.8 294.6Q597.8 292.7 599.3 291.3Q600.7 290.0 602.7 290.0L602.7 290.0Q604.8 290.0 606.2 291.3Q607.7 292.7 607.7 294.6L607.7 294.6Q607.7 296.5 606.2 297.8Q604.8 299.2 602.7 299.2ZM626.8 319.8L620.8 326.7L620.8 315.8L622.1 315.8L632.6 303.4L643.0 303.4L628.9 319.8L626.8 319.8ZM621.6 336.1L612.6 336.1L612.6 292.5L621.6 292.5L621.6 336.1ZM643.6 336.1L633.0 336.1L623.4 321.9L629.4 315.5L643.6 336.1ZM659.0 336.8L659.0 336.8Q654.0 336.8 650.3 334.7Q646.7 332.7 644.7 328.9Q642.8 325.1 642.8 319.9L642.8 319.9Q642.8 314.9 644.7 311.0Q646.7 307.2 650.3 305.1Q653.8 303.0 658.6 303.0L658.6 303.0Q661.9 303.0 664.7 304.0Q667.5 305.0 669.6 307.1Q671.7 309.2 672.9 312.3Q674.0 315.4 674.0 319.6L674.0 319.6L674.0 322.1L646.4 322.1L646.4 316.5L665.5 316.5Q665.5 314.5 664.6 313.0Q663.8 311.5 662.3 310.6Q660.8 309.7 658.8 309.7L658.8 309.7Q656.7 309.7 655.1 310.7Q653.5 311.6 652.7 313.2Q651.8 314.8 651.7 316.8L651.7 316.8L651.7 322.1Q651.7 324.5 652.6 326.3Q653.5 328.1 655.2 329.0Q656.9 330.0 659.2 330.0L659.2 330.0Q660.7 330.0 661.9 329.6Q663.2 329.1 664.1 328.3Q665.0 327.4 665.4 326.2L665.4 326.2L673.8 326.8Q673.2 329.8 671.2 332.0Q669.3 334.3 666.2 335.5Q663.1 336.8 659.0 336.8Z M701.0 336.1L691.7 336.1L691.7 292.5L709.0 292.5Q713.9 292.5 717.4 294.4Q720.9 296.3 722.7 299.6Q724.6 302.9 724.6 307.3L724.6 307.3Q724.6 311.6 722.7 314.9Q720.8 318.3 717.3 320.1Q713.7 322.0 708.7 322.0L708.7 322.0L697.7 322.0L697.7 314.6L707.2 314.6Q709.9 314.6 711.6 313.7Q713.4 312.7 714.2 311.1Q715.1 309.4 715.1 307.3L715.1 307.3Q715.1 305.1 714.2 303.5Q713.4 301.8 711.6 300.9Q709.9 300.0 707.2 300.0L707.2 300.0L701.0 300.0L701.0 336.1ZM742.7 336.8L742.7 336.8Q737.7 336.8 734.1 334.6Q730.5 332.5 728.5 328.7Q726.6 324.9 726.6 319.9L726.6 319.9Q726.6 314.8 728.5 311.0Q730.5 307.2 734.1 305.1Q737.7 303.0 742.7 303.0L742.7 303.0Q747.6 303.0 751.2 305.1Q754.8 307.2 756.8 311.0Q758.8 314.8 758.8 319.9L758.8 319.9Q758.8 324.9 756.8 328.7Q754.8 332.5 751.2 334.6Q747.6 336.8 742.7 336.8ZM742.7 329.7L742.7 329.7Q745.0 329.7 746.5 328.4Q748.0 327.2 748.8 324.9Q749.5 322.7 749.5 319.8L749.5 319.8Q749.5 317.0 748.8 314.7Q748.0 312.5 746.5 311.2Q745.0 309.9 742.7 309.9L742.7 309.9Q740.4 309.9 738.9 311.2Q737.3 312.5 736.6 314.7Q735.8 317.0 735.8 319.8L735.8 319.8Q735.8 322.7 736.6 324.9Q737.3 327.2 738.9 328.4Q740.4 329.7 742.7 329.7ZM774.8 336.7L774.8 336.7Q771.0 336.7 768.0 334.7Q765.0 332.8 763.2 329.0Q761.5 325.3 761.5 319.8L761.5 319.8Q761.5 314.2 763.3 310.4Q765.1 306.7 768.1 304.8Q771.1 303.0 774.7 303.0L774.7 303.0Q777.5 303.0 779.3 303.9Q781.2 304.8 782.3 306.2Q783.4 307.6 784.0 308.9L784.0 308.9L784.3 308.9L784.3 292.5L793.4 292.5L793.4 336.1L784.4 336.1L784.4 330.9L784.0 330.9Q783.4 332.2 782.2 333.6Q781.1 334.9 779.2 335.8Q777.4 336.7 774.8 336.7ZM777.6 329.4L777.6 329.4Q779.8 329.4 781.3 328.2Q782.9 327.0 783.7 324.9Q784.5 322.7 784.5 319.8L784.5 319.8Q784.5 316.8 783.7 314.7Q782.9 312.5 781.4 311.4Q779.8 310.2 777.6 310.2L777.6 310.2Q775.4 310.2 773.9 311.4Q772.3 312.6 771.5 314.8Q770.7 316.9 770.7 319.8L770.7 319.8Q770.7 322.6 771.5 324.8Q772.3 327.0 773.9 328.2Q775.4 329.4 777.6 329.4ZM813.6 336.8L813.6 336.8Q808.6 336.8 805.0 334.6Q801.3 332.5 799.4 328.7Q797.5 324.9 797.5 319.9L797.5 319.9Q797.5 314.9 799.4 311.1Q801.4 307.3 805.0 305.1Q808.6 303.0 813.6 303.0L813.6 303.0Q817.8 303.0 821.1 304.5Q824.3 306.1 826.1 308.9Q828.0 311.7 828.2 315.5L828.2 315.5L819.6 315.5Q819.3 313.0 817.7 311.5Q816.2 310.0 813.7 310.0L813.7 310.0Q811.6 310.0 810.0 311.2Q808.5 312.3 807.6 314.5Q806.7 316.7 806.7 319.8L806.7 319.8Q806.7 322.9 807.6 325.1Q808.4 327.3 810.0 328.4Q811.6 329.6 813.7 329.6L813.7 329.6Q815.3 329.6 816.5 328.9Q817.8 328.3 818.6 327.1Q819.4 325.9 819.6 324.1L819.6 324.1L828.2 324.1Q828.0 327.9 826.2 330.7Q824.4 333.6 821.2 335.2Q818.0 336.8 813.6 336.8ZM841.4 336.7L841.4 336.7Q838.3 336.7 835.8 335.6Q833.4 334.5 831.9 332.4Q830.5 330.2 830.5 327.0L830.5 327.0Q830.5 324.3 831.5 322.4Q832.5 320.5 834.2 319.4Q836.0 318.3 838.2 317.7Q840.4 317.1 842.8 316.9L842.8 316.9Q845.7 316.6 847.4 316.3Q849.2 316.1 850.0 315.5Q850.7 315.0 850.7 314.0L850.7 314.0L850.7 313.8Q850.7 311.8 849.5 310.7Q848.2 309.6 845.9 309.6L845.9 309.6Q843.4 309.6 842.0 310.7Q840.5 311.8 840.1 313.4L840.1 313.4L831.7 312.7Q832.3 309.7 834.2 307.5Q836.1 305.3 839.0 304.2Q842.0 303.0 845.9 303.0L845.9 303.0Q848.7 303.0 851.2 303.6Q853.7 304.3 855.6 305.6Q857.6 306.9 858.7 309.0Q859.8 311.1 859.8 314.1L859.8 314.1L859.8 336.1L851.2 336.1L851.2 331.6L851.0 331.6Q850.2 333.1 848.8 334.3Q847.5 335.4 845.7 336.1Q843.8 336.7 841.4 336.7ZM844.0 330.5L844.0 330.5Q846.0 330.5 847.5 329.7Q849.1 328.9 849.9 327.5Q850.8 326.2 850.8 324.4L850.8 324.4L850.8 321.0Q850.4 321.2 849.6 321.5Q848.9 321.7 848.0 321.9Q847.1 322.0 846.2 322.2Q845.2 322.3 844.5 322.4L844.5 322.4Q842.9 322.7 841.7 323.2Q840.5 323.7 839.9 324.5Q839.2 325.4 839.2 326.7L839.2 326.7Q839.2 328.5 840.5 329.5Q841.9 330.5 844.0 330.5ZM892.1 312.7L892.1 312.7L883.8 313.2Q883.6 312.2 882.9 311.3Q882.2 310.5 881.0 309.9Q879.9 309.4 878.3 309.4L878.3 309.4Q876.2 309.4 874.8 310.3Q873.3 311.2 873.3 312.6L873.3 312.6Q873.3 313.8 874.2 314.6Q875.2 315.4 877.5 315.9L877.5 315.9L883.4 317.1Q888.2 318.1 890.5 320.3Q892.8 322.4 892.8 326.0L892.8 326.0Q892.8 329.2 891.0 331.6Q889.1 334.1 885.8 335.4Q882.5 336.8 878.3 336.8L878.3 336.8Q871.8 336.8 867.9 334.0Q864.1 331.3 863.4 326.6L863.4 326.6L872.3 326.2Q872.8 328.2 874.3 329.2Q875.9 330.2 878.3 330.2L878.3 330.2Q880.7 330.2 882.1 329.3Q883.6 328.4 883.6 326.9L883.6 326.9Q883.6 325.7 882.6 324.9Q881.6 324.1 879.4 323.6L879.4 323.6L873.8 322.5Q869.0 321.6 866.6 319.2Q864.3 316.8 864.3 313.2L864.3 313.2Q864.3 310.0 866.0 307.7Q867.7 305.4 870.8 304.2Q874.0 303.0 878.2 303.0L878.2 303.0Q884.4 303.0 887.9 305.6Q891.5 308.2 892.1 312.7ZM894.3 303.4L914.0 303.4L914.0 310.2L894.3 310.2L894.3 303.4ZM898.7 327.3L898.7 295.6L907.8 295.6L907.8 326.1Q907.8 327.3 908.2 328.0Q908.6 328.7 909.3 329.0Q910.0 329.3 910.9 329.3L910.9 329.3Q911.5 329.3 912.2 329.1Q912.8 329.0 913.2 329.0L913.2 329.0L914.6 335.7Q913.9 335.9 912.7 336.2Q911.4 336.5 909.7 336.6L909.7 336.6Q906.4 336.7 903.9 335.7Q901.5 334.7 900.1 332.6Q898.7 330.5 898.7 327.3L898.7 327.3ZM944.7 312.7L944.7 312.7L936.4 313.2Q936.1 312.2 935.4 311.3Q934.7 310.5 933.6 309.9Q932.5 309.4 930.9 309.4L930.9 309.4Q928.8 309.4 927.3 310.3Q925.9 311.2 925.9 312.6L925.9 312.6Q925.9 313.8 926.8 314.6Q927.8 315.4 930.0 315.9L930.0 315.9L936.0 317.1Q940.7 318.1 943.1 320.3Q945.4 322.4 945.4 326.0L945.4 326.0Q945.4 329.2 943.5 331.6Q941.6 334.1 938.4 335.4Q935.1 336.8 930.8 336.8L930.8 336.8Q924.3 336.8 920.5 334.0Q916.6 331.3 916.0 326.6L916.0 326.6L924.9 326.2Q925.3 328.2 926.9 329.2Q928.4 330.2 930.9 330.2L930.9 330.2Q933.2 330.2 934.7 329.3Q936.2 328.4 936.2 326.9L936.2 326.9Q936.2 325.7 935.1 324.9Q934.1 324.1 932.0 323.6L932.0 323.6L926.3 322.5Q921.5 321.6 919.2 319.2Q916.9 316.8 916.9 313.2L916.9 313.2Q916.9 310.0 918.6 307.7Q920.3 305.4 923.4 304.2Q926.5 303.0 930.7 303.0L930.7 303.0Q936.9 303.0 940.5 305.6Q944.1 308.2 944.7 312.7Z "/></clipPath><defs><pattern id="satori_pattern_id-0_0" x="0" y="0" width="1" height="1" patternUnits="objectBoundingBox"><linearGradient id="satori_biid-0_0" x1="0" y1="0" x2="1" y2="0" spreadMethod="pad"><stop offset="0%" stop-color="white"/><stop offset="100%" stop-color="#22c55e"/></linearGradient><rect x="0" y="0" width="693" height="90" fill="url(#satori_biid-0_0)"/></pattern></defs><mask id="satori_om-id-0"><rect x="254" y="270" width="693" height="90" fill="#fff"/></mask><rect x="254" y="270" width="693" height="90" fill="url(#satori_pattern_id-0_0)" clip-path="url(#satori_bct-id-0)"/><clipPath id="satori_bct-id-0-0"/><mask id="satori_om-id-0-0"><rect x="254" y="270" width="80" height="90" fill="#fff"/></mask><clipPath id="satori_bct-id-0-0-0"/><clipPath id="satori_cp-id-0-0-0"><rect x="254" y="270" width="80" height="90"/></clipPath><mask id="satori_om-id-0-0-0"><rect x="254" y="270" width="80" height="90" fill="#fff"/></mask><image x="254" y="270" width="80" height="90" href="data:image/svg+xml;utf8,%3Csvg  xmlns=%22http://www.w3.org/2000/svg%22 width=%2275%22 height=%2290%22 viewBox=%220 0 100 120%22%3E%3Crect x=%2240%22 y=%2220%22 width=%2220%22 height=%2290%22 fill=%22white%22%3E%3C/rect%3E%3Crect x=%2220%22 y=%2250%22 width=%2260%22 height=%2220%22 fill=%22white%22%3E%3C/rect%3E%3C/svg%3E" preserveAspectRatio="none" clip-path="url(#satori_cp-id-0-0-0)" mask="url(#satori_om-id-0-0-0)"/><clipPath id="satori_bct-id-0-0-0-0"/><mask id="satori_om-id-0-0-0-0"><rect x="254" y="270" width="0" height="90" fill="#fff"/></mask><clipPath id="satori_bct-id-0-0-0-1"/><mask id="satori_om-id-0-0-0-1"><rect x="254" y="270" width="0" height="90" fill="#fff"/></mask></svg>